<svg width="20" height="20" viewBox="0 0 20 20" fill="none" xmlns="http://www.w3.org/2000/svg">
<g clip-path="url(#clip0_7108_19)">
<path fill-rule="evenodd" clip-rule="evenodd" d="M3.33325 2.49998C2.87682 2.49998 2.49992 2.87688 2.49992 3.33331V11.6666C2.49992 12.1231 2.87682 12.5 3.33325 12.5C3.79349 12.5 4.16658 12.8731 4.16658 13.3333C4.16658 13.7935 3.79349 14.1666 3.33325 14.1666C1.95635 14.1666 0.833252 13.0435 0.833252 11.6666V3.33331C0.833252 1.95641 1.95635 0.833313 3.33325 0.833313H11.6666C13.0435 0.833313 14.1666 1.95641 14.1666 3.33331C14.1666 3.79355 13.7935 4.16665 13.3333 4.16665C12.873 4.16665 12.4999 3.79355 12.4999 3.33331C12.4999 2.87688 12.123 2.49998 11.6666 2.49998H3.33325ZM8.33325 7.49998C7.87301 7.49998 7.49992 7.87307 7.49992 8.33331V16.6666C7.49992 17.1269 7.87301 17.5 8.33325 17.5H16.6666C17.1268 17.5 17.4999 17.1269 17.4999 16.6666V8.33331C17.4999 7.87307 17.1268 7.49998 16.6666 7.49998H8.33325ZM5.83325 8.33331C5.83325 6.9526 6.95254 5.83331 8.33325 5.83331H16.6666C18.0473 5.83331 19.1666 6.9526 19.1666 8.33331V16.6666C19.1666 18.0474 18.0473 19.1666 16.6666 19.1666H8.33325C6.95254 19.1666 5.83325 18.0474 5.83325 16.6666V8.33331Z" fill="#6F9DE2"/>
</g>
<defs>
<clipPath id="clip0_7108_19">
<rect width="20" height="20" fill="white"/>
</clipPath>
</defs>
</svg>
