<svg width="20" height="20" viewBox="0 0 20 20" fill="none" xmlns="http://www.w3.org/2000/svg">
<g clip-path="url(#clip0_7108_15)">
<path fill-rule="evenodd" clip-rule="evenodd" d="M10.6463 2.29223C11.5893 1.38144 12.8523 0.877469 14.1633 0.888861C15.4743 0.900253 16.7284 1.4261 17.6554 2.35314C18.5825 3.28018 19.1083 4.53424 19.1197 5.84523C19.1311 7.15621 18.6271 8.41922 17.7163 9.36223C17.713 9.3657 17.7096 9.36915 17.7062 9.37256L15.2063 11.8725C15.2062 11.8725 15.2062 11.8725 15.2062 11.8726C14.6993 12.3796 14.0893 12.7717 13.4176 13.0222C12.7459 13.2728 12.0281 13.376 11.3129 13.3248C10.5978 13.2736 9.90202 13.0692 9.27283 12.7254C8.64363 12.3816 8.09573 11.9066 7.66628 11.3325C7.3906 10.9639 7.46589 10.4417 7.83443 10.166C8.20297 9.89033 8.72521 9.96561 9.00088 10.3342C9.28719 10.7169 9.65246 11.0336 10.0719 11.2628C10.4914 11.492 10.9552 11.6282 11.432 11.6624C11.9087 11.6965 12.3873 11.6277 12.8351 11.4607C13.283 11.2936 13.6896 11.0322 14.0275 10.6942L14.0277 10.6941L16.5223 8.19942C17.1265 7.57128 17.4607 6.7314 17.4531 5.85971C17.4455 4.98572 17.0949 4.14968 16.4769 3.53165C15.8589 2.91362 15.0228 2.56306 14.1488 2.55546C13.2767 2.54789 12.4365 2.8824 11.8083 3.4871L10.3794 4.90761C10.0531 5.2321 9.52543 5.23056 9.20094 4.90417C8.87645 4.57779 8.87799 4.05015 9.20438 3.72567L10.6377 2.30067L10.6463 2.29223ZM6.58287 6.97771C7.25463 6.72712 7.97242 6.62394 8.68757 6.67516C9.40271 6.72637 10.0985 6.93079 10.7277 7.27455C11.3569 7.61831 11.9048 8.09336 12.3342 8.66749C12.6099 9.03603 12.5346 9.55827 12.1661 9.83394C11.7975 10.1096 11.2753 10.0343 10.9996 9.66579C10.7133 9.28304 10.348 8.96633 9.92857 8.73716C9.50911 8.50799 9.04527 8.37171 8.56851 8.33757C8.09175 8.30342 7.61322 8.37221 7.16538 8.53927C6.71754 8.70632 6.31087 8.96774 5.97294 9.30579L5.97284 9.30589L3.47824 11.8005C2.87404 12.4286 2.53983 13.2685 2.54741 14.1402C2.555 15.0142 2.90557 15.8503 3.52359 16.4683C4.14162 17.0863 4.97766 17.4369 5.85165 17.4445C6.72336 17.4521 7.56326 17.1178 8.19141 16.5136L9.61099 15.0941C9.93643 14.7686 10.4641 14.7686 10.7895 15.094C11.1149 15.4195 11.1149 15.9471 10.7895 16.2726L9.3645 17.6976C9.36236 17.6997 9.3602 17.7018 9.35804 17.704C9.35675 17.7052 9.35546 17.7065 9.35417 17.7077C8.41116 18.6185 7.14815 19.1225 5.83717 19.1111C4.52618 19.0997 3.27212 18.5738 2.34508 17.6468C1.41804 16.7198 0.892196 15.4657 0.880804 14.1547C0.869412 12.8437 1.37338 11.5807 2.28417 10.6377C2.28753 10.6342 2.29091 10.6308 2.29433 10.6274L4.79422 8.12749C4.79425 8.12745 4.79429 8.12742 4.79433 8.12738C5.30119 7.62037 5.91116 7.22828 6.58287 6.97771Z" fill="#DAE4F2"/>
</g>
<defs>
<clipPath id="clip0_7108_15">
<rect width="20" height="20" fill="white"/>
</clipPath>
</defs>
</svg>
