<svg width="20" height="20" viewBox="0 0 20 20" fill="none" xmlns="http://www.w3.org/2000/svg">
<path fill-rule="evenodd" clip-rule="evenodd" d="M4.67259 3.49408C4.99803 3.81951 4.99803 4.34715 4.67259 4.67259C1.74803 7.59715 1.74803 12.4029 4.67259 15.3274C4.99803 15.6529 4.99803 16.1805 4.67259 16.5059C4.34715 16.8314 3.81951 16.8314 3.49408 16.5059C-0.0813593 12.9305 -0.0813593 7.06952 3.49408 3.49408C3.81951 3.16864 4.34715 3.16864 4.67259 3.49408ZM15.3274 3.49408C15.6528 3.16864 16.1805 3.16864 16.5059 3.49408C20.0814 7.06952 20.0814 12.8472 16.5059 16.4226C16.1805 16.748 15.6528 16.748 15.3274 16.4226C15.002 16.0972 15.002 15.5695 15.3274 15.2441C18.252 12.3195 18.252 7.59715 15.3274 4.67259C15.002 4.34715 15.002 3.81951 15.3274 3.49408ZM7.07659 5.81501C7.40887 6.13345 7.4201 6.66097 7.10166 6.99325C5.48715 8.67796 5.50477 11.3263 7.08926 12.9107C7.41469 13.2362 7.41469 13.7638 7.08926 14.0893C6.76382 14.4147 6.23618 14.4147 5.91075 14.0893C3.66189 11.8404 3.67952 8.15537 5.89834 5.84008C6.21678 5.50779 6.7443 5.49657 7.07659 5.81501ZM12.9107 5.91074C13.2362 5.58531 13.7638 5.58531 14.0893 5.91074C16.3381 8.1596 16.3205 11.8446 14.1017 14.1599C13.7832 14.4922 13.2557 14.5034 12.9234 14.185C12.5911 13.8666 12.5799 13.339 12.8983 13.0067C14.5129 11.322 14.4952 8.67374 12.9107 7.08926C12.5853 6.76382 12.5853 6.23618 12.9107 5.91074ZM10 9.16667C9.53976 9.16667 9.16667 9.53976 9.16667 10C9.16667 10.4602 9.53976 10.8333 10 10.8333C10.4602 10.8333 10.8333 10.4602 10.8333 10C10.8333 9.53976 10.4602 9.16667 10 9.16667ZM7.5 10C7.5 8.61929 8.61929 7.5 10 7.5C11.3807 7.5 12.5 8.61929 12.5 10C12.5 11.3807 11.3807 12.5 10 12.5C8.61929 12.5 7.5 11.3807 7.5 10Z" fill="#9871F3"/>
</svg>
