<svg width="20" height="20" viewBox="0 0 20 20" fill="none" xmlns="http://www.w3.org/2000/svg">
<g clip-path="url(#clip0_5101_1565)">
<path fill-rule="evenodd" clip-rule="evenodd" d="M10 2.50407C9.58034 2.50407 9.16743 2.60971 8.79934 2.81126C8.43125 3.0128 8.11982 3.30377 7.89375 3.65733C7.70491 3.95267 7.35142 4.09825 7.00936 4.02156C6.59863 3.92948 6.1713 3.94259 5.76699 4.05968C5.36268 4.17678 4.99448 4.39406 4.69653 4.69139C4.39858 4.98871 4.18052 5.35646 4.06258 5.76052C3.94464 6.16459 3.93063 6.59189 4.02186 7.00281C4.098 7.3458 3.95085 7.6997 3.65397 7.88758C3.29769 8.11305 3.00423 8.42497 2.80088 8.79432C2.59752 9.16367 2.49089 9.57845 2.49089 10.0001C2.49089 10.4217 2.59752 10.8365 2.80088 11.2058C3.00423 11.5752 3.29769 11.8871 3.65397 12.1126C3.95085 12.3005 4.098 12.6544 4.02186 12.9973C3.93063 13.4083 3.94464 13.8356 4.06258 14.2396C4.18052 14.6437 4.39858 15.0114 4.69653 15.3088C4.99448 15.6061 5.36268 15.8234 5.76699 15.9405C6.1713 16.0576 6.59863 16.0707 7.00936 15.9786C7.35211 15.9018 7.70625 16.0481 7.89479 16.3445C8.12056 16.6994 8.43224 16.9916 8.80096 17.194C9.16968 17.3965 9.58352 17.5026 10.0042 17.5026C10.4248 17.5026 10.8386 17.3965 11.2074 17.194C11.5761 16.9916 11.8878 16.6994 12.1135 16.3445C12.3017 16.0486 12.655 15.9022 12.9973 15.9782C13.4082 16.0694 13.8355 16.0554 14.2396 15.9375C14.6436 15.8196 15.0114 15.6015 15.3087 15.3036C15.606 15.0056 15.8233 14.6374 15.9404 14.2331C16.0575 13.8288 16.0706 13.4014 15.9785 12.9907C15.9018 12.6487 16.0474 12.2952 16.3428 12.1063C16.6963 11.8803 16.9873 11.5688 17.1888 11.2007C17.3904 10.8326 17.496 10.4197 17.496 10.0001C17.496 9.58042 17.3904 9.16752 17.1888 8.79942C16.9873 8.43133 16.6963 8.1199 16.3428 7.89383C16.0473 7.70489 15.9017 7.35115 15.9786 7.00895C16.0711 6.5976 16.0581 6.16953 15.9407 5.76458C15.8233 5.35962 15.6054 4.99093 15.3073 4.6928C15.0091 4.39466 14.6405 4.17678 14.2355 4.0594C13.8305 3.94202 13.4025 3.92897 12.9911 4.02145C12.6489 4.09839 12.2952 3.95282 12.1062 3.65733C11.8802 3.30377 11.5687 3.0128 11.2007 2.81126C10.8326 2.60971 10.4197 2.50407 10 2.50407ZM7.9989 1.34938C8.61239 1.01347 9.30057 0.837402 10 0.837402C10.6994 0.837402 11.3876 1.01347 12.0011 1.34938C12.4504 1.59538 12.849 1.9213 13.1782 2.30959C13.6886 2.26517 14.2044 2.31511 14.6995 2.45862C15.3744 2.65425 15.9889 3.0174 16.4858 3.51429C16.9827 4.01117 17.3458 4.62566 17.5415 5.30059C17.685 5.79569 17.7349 6.31153 17.6905 6.82189C18.0788 7.15108 18.4047 7.54971 18.6507 7.99899C18.9866 8.61247 19.1627 9.30065 19.1627 10.0001C19.1627 10.6995 18.9866 11.3877 18.6507 12.0012C18.4046 12.4505 18.0786 12.8492 17.6902 13.1785C17.7343 13.6878 17.6844 14.2026 17.5413 14.6967C17.3461 15.3706 16.984 15.9842 16.4884 16.4808C15.9929 16.9774 15.38 17.3408 14.7065 17.5374C14.2128 17.6815 13.6981 17.7325 13.1887 17.6895C12.8594 18.0799 12.46 18.4076 12.0095 18.655C11.395 18.9924 10.7052 19.1693 10.0042 19.1693C9.3031 19.1693 8.61336 18.9924 7.99883 18.655C7.54868 18.4078 7.14954 18.0804 6.82032 17.6904C6.31139 17.7343 5.79707 17.6843 5.30335 17.5414C4.6295 17.3462 4.01583 16.9841 3.51925 16.4885C3.02267 15.993 2.65924 15.3801 2.46268 14.7066C2.31867 14.2132 2.26763 13.6991 2.31042 13.1901C1.91848 12.8608 1.58932 12.4609 1.34087 12.0097C1.00195 11.3941 0.824219 10.7028 0.824219 10.0001C0.824219 9.29736 1.00195 8.60606 1.34087 7.99048C1.58932 7.53922 1.91848 7.1394 2.31042 6.81006C2.26763 6.30107 2.31867 5.78691 2.46268 5.29354C2.65924 4.6201 3.02267 4.00719 3.51925 3.51164C4.01583 3.0161 4.6295 2.65396 5.30335 2.4588C5.79748 2.3157 6.31224 2.26578 6.82159 2.30984C7.15083 1.92144 7.54953 1.59543 7.9989 1.34938ZM13.0893 7.74416C13.4147 8.06959 13.4147 8.59723 13.0893 8.92267L9.75592 12.256C9.43048 12.5814 8.90285 12.5814 8.57741 12.256L6.91074 10.5893C6.58531 10.2639 6.58531 9.73626 6.91074 9.41082C7.23618 9.08539 7.76382 9.08539 8.08925 9.41082L9.16666 10.4882L11.9107 7.74416C12.2362 7.41872 12.7638 7.41872 13.0893 7.74416Z" fill="#9871F3"/>
</g>
<defs>
<clipPath id="clip0_5101_1565">
<rect width="20" height="20" fill="white"/>
</clipPath>
</defs>
</svg>
